<svg width="32" height="32" viewBox="0 0 32 32" fill="none" xmlns="http://www.w3.org/2000/svg">
<rect width="32" height="32" rx="1.61006" fill="#001240"/>
<path d="M5.5 22.4152V8.5H10.3851L12.7977 20.6261H13.1566L15.5865 8.5H20.4716L20.4479 9.65985L20.4416 12.5553V18.2407C20.4416 18.9828 20.621 19.5394 20.9799 19.9105C21.3521 20.2816 21.8772 20.4671 22.5551 20.4671C23.3261 20.4671 23.9243 20.2153 24.3496 19.7117C24.775 19.1949 24.9877 18.4792 24.9877 17.5648V12.5553H27.5V22.4152H25.0276V21.1231H24.6687C24.5091 21.4544 24.2101 21.7791 23.7714 22.0972C23.3327 22.4152 22.6681 22.614 21.7775 22.614C21.0065 22.614 20.3286 22.4417 19.7437 22.0972C19.1721 21.7394 18.7268 21.2093 18.4078 20.5864C18.0888 19.9635 17.9292 19.2479 17.9292 18.4395L17.9194 10.4283H17.5605L15.1505 22.4152H10.8038L8.4111 10.4283H8.0522V22.4152H5.5Z" fill="white"/>
</svg>
