<?xml version="1.0" encoding="utf-8"?>
<!-- Generator: Adobe Illustrator 27.5.0, SVG Export Plug-In . SVG Version: 6.00 Build 0)  -->
<svg version="1.1" id="Layer_1" xmlns="http://www.w3.org/2000/svg" xmlns:xlink="http://www.w3.org/1999/xlink" x="0px" y="0px"
	 viewBox="0 0 24 24" style="enable-background:new 0 0 24 24;" xml:space="preserve">
<style type="text/css">
	.st0{fill:#FFC107;}
	.st1{fill:#FF3D00;}
	.st2{fill:#4CAF50;}
	.st3{fill:#1976D2;}
</style>
<path class="st0" d="M20.8,10.2h-0.7v0H12v3.6h5.1c-0.7,2.1-2.7,3.6-5.1,3.6c-3,0-5.4-2.4-5.4-5.4S9,6.6,12,6.6
	c1.4,0,2.6,0.5,3.6,1.4l2.5-2.5C16.5,3.9,14.4,3,12,3c-5,0-9,4-9,9s4,9,9,9s9-4,9-9C21,11.4,20.9,10.8,20.8,10.2z"/>
<path class="st1" d="M4,7.8L7,10c0.8-2,2.7-3.4,5-3.4c1.4,0,2.6,0.5,3.6,1.4l2.5-2.5C16.5,3.9,14.4,3,12,3C8.5,3,5.5,5,4,7.8z"/>
<path class="st2" d="M12,21c2.3,0,4.4-0.9,6-2.3l-2.8-2.4c-0.9,0.7-2,1.1-3.2,1.1c-2.3,0-4.3-1.5-5.1-3.6L4,16.1
	C5.5,19,8.5,21,12,21z"/>
<path class="st3" d="M12,10.2v3.6h5.1c-0.4,1-1,1.9-1.8,2.5c0,0,0,0,0,0l2.8,2.4c-0.2,0.2,3-2.2,3-6.7c0-0.6-0.1-1.2-0.2-1.8"/>
</svg>
